<svg xmlns="http://www.w3.org/2000/svg" xmlns:xlink="http://www.w3.org/1999/xlink" width="500" zoomAndPan="magnify" viewBox="0 0 375 374.999991" height="500" preserveAspectRatio="xMidYMid meet" version="1.0"><defs><g/><clipPath id="id1"><path d="M 106.355469 73.269531 L 268.285156 73.269531 L 268.285156 243.515625 L 106.355469 243.515625 Z M 106.355469 73.269531 " clip-rule="nonzero"/></clipPath><clipPath id="id2"><path d="M 98.542969 77.191406 L 276.097656 77.191406 L 276.097656 243.515625 L 98.542969 243.515625 Z M 98.542969 77.191406 " clip-rule="nonzero"/></clipPath><clipPath id="id3"><path d="M 160 131 L 165 131 L 165 135.019531 L 160 135.019531 Z M 160 131 " clip-rule="nonzero"/></clipPath><clipPath id="id4"><path d="M 210 131 L 215 131 L 215 135.019531 L 210 135.019531 Z M 210 131 " clip-rule="nonzero"/></clipPath><clipPath id="id5"><path d="M 145.523438 111.769531 L 229.523438 111.769531 L 229.523438 135.019531 L 145.523438 135.019531 Z M 145.523438 111.769531 " clip-rule="nonzero"/></clipPath><clipPath id="id6"><path d="M 164 131 L 169 131 L 169 135.019531 L 164 135.019531 Z M 164 131 " clip-rule="nonzero"/></clipPath><clipPath id="id7"><path d="M 206 131 L 211 131 L 211 135.019531 L 206 135.019531 Z M 206 131 " clip-rule="nonzero"/></clipPath></defs><path fill="#00ffff" d="M 110.378906 184.128906 L 106.433594 184.128906 L 106.433594 188.089844 L 110.378906 188.089844 Z M 110.378906 180.171875 L 114.328125 180.171875 L 114.328125 176.214844 L 110.378906 176.214844 Z M 110.378906 219.761719 L 114.328125 219.761719 L 114.328125 215.800781 L 110.378906 215.800781 Z M 118.273438 172.25 L 122.21875 172.25 L 122.21875 168.292969 L 118.273438 168.292969 Z M 118.273438 223.71875 L 122.21875 223.71875 L 122.21875 219.761719 L 118.273438 219.761719 Z M 130.109375 219.761719 L 126.164062 219.761719 L 126.164062 223.71875 L 130.109375 223.71875 Z M 130.109375 235.59375 L 134.054688 235.59375 L 134.054688 231.636719 L 130.109375 231.636719 Z M 134.054688 172.25 L 130.109375 172.25 L 130.109375 176.214844 L 138 176.214844 L 138 172.25 Z M 134.054688 231.636719 L 138 231.636719 L 138 227.679688 L 134.054688 227.679688 Z M 138 227.679688 L 141.945312 227.679688 L 141.945312 223.71875 L 138 223.71875 Z M 138 239.558594 L 141.945312 239.558594 L 141.945312 231.636719 L 138 231.636719 Z M 141.945312 176.214844 L 138 176.214844 L 138 180.171875 L 145.890625 180.171875 L 145.890625 176.214844 Z M 145.890625 180.171875 L 145.890625 184.128906 L 149.835938 184.128906 L 149.835938 180.171875 Z M 149.835938 223.71875 L 149.835938 219.761719 L 141.945312 219.761719 L 141.945312 223.71875 Z M 145.890625 231.636719 L 145.890625 235.59375 L 153.785156 235.59375 L 153.785156 231.636719 Z M 153.785156 132.660156 L 153.785156 128.703125 L 149.835938 128.703125 L 149.835938 140.578125 L 153.785156 140.578125 Z M 149.835938 188.089844 L 153.785156 188.089844 L 153.785156 184.128906 L 149.835938 184.128906 Z M 157.726562 124.738281 L 153.785156 124.738281 L 153.785156 128.703125 L 157.726562 128.703125 Z M 157.726562 140.578125 L 153.785156 140.578125 L 153.785156 148.5 L 157.726562 148.5 Z M 161.671875 120.78125 L 157.726562 120.78125 L 157.726562 124.738281 L 161.671875 124.738281 Z M 157.726562 148.5 L 157.726562 152.457031 L 161.671875 152.457031 L 161.671875 148.5 Z M 165.621094 116.824219 L 161.671875 116.824219 L 161.671875 120.78125 L 165.621094 120.78125 Z M 161.671875 152.457031 L 161.671875 156.417969 L 165.621094 156.417969 L 165.621094 152.457031 Z M 161.671875 219.761719 L 161.671875 223.71875 L 165.621094 223.71875 L 165.621094 219.761719 Z M 169.5625 112.863281 L 165.621094 112.863281 L 165.621094 116.824219 L 169.5625 116.824219 Z M 165.621094 128.703125 L 169.5625 128.703125 L 169.5625 124.738281 L 165.621094 124.738281 Z M 165.621094 156.417969 L 165.621094 160.375 L 169.5625 160.375 L 169.5625 156.417969 Z M 165.621094 227.679688 L 169.5625 227.679688 L 169.5625 223.71875 L 165.621094 223.71875 Z M 173.511719 108.90625 L 169.5625 108.90625 L 169.5625 112.863281 L 173.511719 112.863281 Z M 169.5625 160.375 L 169.5625 164.332031 L 173.511719 164.332031 L 173.511719 160.375 Z M 169.5625 176.214844 L 169.5625 188.089844 L 173.511719 188.089844 L 173.511719 172.25 L 169.5625 172.25 Z M 177.457031 104.945312 L 177.457031 100.988281 L 173.511719 100.988281 L 173.511719 108.90625 L 177.457031 108.90625 Z M 173.511719 164.332031 L 173.511719 168.292969 L 177.457031 168.292969 L 177.457031 164.332031 Z M 177.457031 124.738281 L 181.398438 124.738281 L 181.398438 120.78125 L 177.457031 120.78125 Z M 177.457031 168.292969 L 177.457031 172.25 L 181.398438 172.25 L 181.398438 168.292969 Z M 185.347656 97.03125 L 181.398438 97.03125 L 181.398438 100.988281 L 185.347656 100.988281 Z M 181.398438 172.25 L 181.398438 176.214844 L 185.347656 176.214844 L 185.347656 172.25 Z M 189.292969 93.070312 L 185.347656 93.070312 L 185.347656 97.03125 L 189.292969 97.03125 Z M 185.347656 180.171875 L 189.292969 180.171875 L 189.292969 176.214844 L 185.347656 176.214844 Z M 189.292969 192.046875 L 185.347656 192.046875 L 185.347656 196.007812 L 189.292969 196.007812 Z M 185.347656 203.925781 L 189.292969 203.925781 L 189.292969 199.964844 L 185.347656 199.964844 Z M 185.347656 211.84375 L 189.292969 211.84375 L 189.292969 207.882812 L 185.347656 207.882812 Z M 185.347656 219.761719 L 189.292969 219.761719 L 189.292969 215.800781 L 185.347656 215.800781 Z M 185.347656 223.71875 L 185.347656 227.679688 L 193.238281 227.679688 L 193.238281 223.71875 Z M 185.347656 239.558594 L 189.292969 239.558594 L 189.292969 235.59375 L 185.347656 235.59375 Z M 193.238281 100.988281 L 193.238281 97.03125 L 189.292969 97.03125 L 189.292969 100.988281 Z M 189.292969 176.214844 L 193.238281 176.214844 L 193.238281 172.25 L 189.292969 172.25 Z M 189.292969 235.59375 L 193.238281 235.59375 L 193.238281 231.636719 L 189.292969 231.636719 Z M 193.238281 124.738281 L 197.183594 124.738281 L 197.183594 120.78125 L 193.238281 120.78125 Z M 193.238281 172.25 L 197.183594 172.25 L 197.183594 168.292969 L 193.238281 168.292969 Z M 201.128906 100.988281 L 197.183594 100.988281 L 197.183594 108.90625 L 201.128906 108.90625 Z M 197.183594 168.292969 L 201.128906 168.292969 L 201.128906 164.332031 L 197.183594 164.332031 Z M 201.128906 108.90625 L 201.128906 112.863281 L 205.078125 112.863281 L 205.078125 108.90625 Z M 201.128906 164.332031 L 205.078125 164.332031 L 205.078125 160.375 L 201.128906 160.375 Z M 205.078125 184.128906 L 205.078125 172.25 L 201.128906 172.25 L 201.128906 188.089844 L 205.078125 188.089844 Z M 205.078125 112.863281 L 205.078125 116.824219 L 209.019531 116.824219 L 209.019531 112.863281 Z M 209.019531 124.738281 L 205.078125 124.738281 L 205.078125 128.703125 L 209.019531 128.703125 Z M 205.078125 160.375 L 209.019531 160.375 L 209.019531 156.417969 L 205.078125 156.417969 Z M 205.078125 227.679688 L 209.019531 227.679688 L 209.019531 223.71875 L 205.078125 223.71875 Z M 209.019531 116.824219 L 209.019531 120.78125 L 212.96875 120.78125 L 212.96875 116.824219 Z M 209.019531 156.417969 L 212.96875 156.417969 L 212.96875 152.457031 L 209.019531 152.457031 Z M 209.019531 223.71875 L 212.96875 223.71875 L 212.96875 219.761719 L 209.019531 219.761719 Z M 212.96875 120.78125 L 212.96875 124.738281 L 216.910156 124.738281 L 216.910156 120.78125 Z M 212.96875 152.457031 L 216.910156 152.457031 L 216.910156 148.5 L 212.96875 148.5 Z M 216.910156 124.738281 L 216.910156 128.703125 L 220.855469 128.703125 L 220.855469 124.738281 Z M 220.855469 144.535156 L 220.855469 140.578125 L 216.910156 140.578125 L 216.910156 148.5 L 220.855469 148.5 Z M 224.804688 136.621094 L 224.804688 128.703125 L 220.855469 128.703125 L 220.855469 140.578125 L 224.804688 140.578125 Z M 220.855469 188.089844 L 224.804688 188.089844 L 224.804688 184.128906 L 220.855469 184.128906 Z M 220.855469 231.636719 L 220.855469 235.59375 L 228.746094 235.59375 L 228.746094 231.636719 Z M 224.804688 184.128906 L 228.746094 184.128906 L 228.746094 180.171875 L 224.804688 180.171875 Z M 228.746094 219.761719 L 224.804688 219.761719 L 224.804688 223.71875 L 232.695312 223.71875 L 232.695312 219.761719 Z M 236.640625 180.171875 L 236.640625 176.214844 L 228.746094 176.214844 L 228.746094 180.171875 Z M 232.695312 223.71875 L 232.695312 227.679688 L 236.640625 227.679688 L 236.640625 223.71875 Z M 232.695312 235.59375 L 232.695312 239.558594 L 236.640625 239.558594 L 236.640625 231.636719 L 232.695312 231.636719 Z M 236.640625 227.679688 L 236.640625 231.636719 L 240.585938 231.636719 L 240.585938 227.679688 Z M 244.53125 176.214844 L 244.53125 172.25 L 236.640625 172.25 L 236.640625 176.214844 Z M 240.585938 219.761719 L 240.585938 223.71875 L 244.53125 223.71875 L 244.53125 215.800781 L 240.585938 215.800781 Z M 240.585938 235.59375 L 244.53125 235.59375 L 244.53125 231.636719 L 240.585938 231.636719 Z M 244.53125 215.800781 L 248.476562 215.800781 L 248.476562 211.84375 L 244.53125 211.84375 Z M 256.367188 168.292969 L 252.421875 168.292969 L 252.421875 172.25 L 256.367188 172.25 Z M 252.421875 215.800781 L 252.421875 219.761719 L 260.3125 219.761719 L 260.3125 215.800781 Z M 264.257812 176.214844 L 260.3125 176.214844 L 260.3125 180.171875 L 264.257812 180.171875 Z M 260.3125 211.84375 L 264.257812 211.84375 L 264.257812 207.882812 L 260.3125 207.882812 Z M 268.203125 184.128906 L 268.203125 188.089844 L 264.257812 188.089844 L 264.257812 184.128906 L 268.203125 184.128906 " fill-opacity="1" fill-rule="nonzero"/><g clip-path="url(#id1)"><path fill="#ff00ff" d="M 106.433594 184.128906 L 110.378906 184.128906 L 110.378906 180.171875 L 106.433594 180.171875 Z M 114.328125 176.214844 L 118.273438 176.214844 L 118.273438 172.25 L 114.328125 172.25 Z M 122.21875 168.292969 L 126.164062 168.292969 L 126.164062 164.332031 L 122.21875 164.332031 Z M 130.109375 160.375 L 130.109375 152.457031 L 126.164062 152.457031 L 126.164062 164.332031 L 130.109375 164.332031 Z M 134.054688 148.5 L 130.109375 148.5 L 130.109375 152.457031 L 134.054688 152.457031 Z M 130.109375 239.558594 L 134.054688 239.558594 L 134.054688 235.59375 L 130.109375 235.59375 Z M 138 156.417969 L 141.945312 156.417969 L 141.945312 152.457031 L 134.054688 152.457031 L 134.054688 156.417969 Z M 134.054688 235.59375 L 138 235.59375 L 138 231.636719 L 134.054688 231.636719 Z M 141.945312 140.578125 L 141.945312 136.621094 L 138 136.621094 L 138 144.535156 L 141.945312 144.535156 Z M 145.890625 148.5 L 145.890625 144.535156 L 141.945312 144.535156 L 141.945312 148.5 Z M 145.890625 160.375 L 145.890625 156.417969 L 141.945312 156.417969 L 141.945312 160.375 Z M 149.835938 152.457031 L 149.835938 148.5 L 145.890625 148.5 L 145.890625 152.457031 Z M 153.785156 156.417969 L 153.785156 152.457031 L 149.835938 152.457031 L 149.835938 156.417969 Z M 149.835938 168.292969 L 153.785156 168.292969 L 153.785156 164.332031 L 149.835938 164.332031 Z M 157.726562 160.375 L 157.726562 156.417969 L 153.785156 156.417969 L 153.785156 160.375 Z M 161.671875 172.25 L 157.726562 172.25 L 157.726562 176.214844 L 161.671875 176.214844 Z M 157.726562 196.007812 L 161.671875 196.007812 L 161.671875 192.046875 L 157.726562 192.046875 Z M 161.671875 160.375 L 161.671875 164.332031 L 165.621094 164.332031 L 165.621094 160.375 Z M 165.621094 227.679688 L 165.621094 223.71875 L 161.671875 223.71875 L 161.671875 227.679688 Z M 161.671875 231.636719 L 157.726562 231.636719 L 157.726562 227.679688 L 153.785156 227.679688 L 153.785156 223.71875 L 161.671875 223.71875 L 161.671875 219.761719 L 149.835938 219.761719 L 149.835938 223.71875 L 141.945312 223.71875 L 141.945312 227.679688 L 138 227.679688 L 138 231.636719 L 141.945312 231.636719 L 141.945312 239.558594 L 145.890625 239.558594 L 145.890625 231.636719 L 153.785156 231.636719 L 153.785156 239.558594 L 157.726562 239.558594 L 157.726562 235.59375 L 165.621094 235.59375 L 165.621094 231.636719 Z M 165.621094 164.332031 L 165.621094 168.292969 L 169.5625 168.292969 L 169.5625 164.332031 Z M 165.621094 199.964844 L 169.5625 199.964844 L 169.5625 196.007812 L 165.621094 196.007812 Z M 165.621094 239.558594 L 169.5625 239.558594 L 169.5625 235.59375 L 165.621094 235.59375 Z M 173.511719 81.191406 L 169.5625 81.191406 L 169.5625 85.152344 L 173.511719 85.152344 Z M 169.5625 128.703125 L 169.5625 132.660156 L 173.511719 132.660156 L 173.511719 128.703125 L 181.398438 128.703125 L 181.398438 124.738281 L 177.457031 124.738281 L 177.457031 120.78125 L 165.621094 120.78125 L 165.621094 124.738281 L 169.5625 124.738281 Z M 169.5625 192.046875 L 173.511719 192.046875 L 173.511719 188.089844 L 169.5625 188.089844 Z M 173.511719 140.578125 L 173.511719 144.535156 L 177.457031 144.535156 L 177.457031 140.578125 Z M 173.511719 168.292969 L 169.5625 168.292969 L 169.5625 172.25 L 177.457031 172.25 L 177.457031 168.292969 Z M 181.398438 77.234375 L 177.457031 77.234375 L 177.457031 81.191406 L 181.398438 81.191406 Z M 177.457031 144.535156 L 177.457031 148.5 L 181.398438 148.5 L 181.398438 144.535156 Z M 177.457031 172.25 L 177.457031 176.214844 L 181.398438 176.214844 L 181.398438 172.25 Z M 185.347656 152.457031 L 193.238281 152.457031 L 193.238281 148.5 L 181.398438 148.5 L 181.398438 152.457031 Z M 181.398438 176.214844 L 181.398438 180.171875 L 185.347656 180.171875 L 185.347656 176.214844 Z M 189.292969 77.234375 L 193.238281 77.234375 L 193.238281 73.273438 L 181.398438 73.273438 L 181.398438 77.234375 Z M 189.292969 132.660156 L 185.347656 132.660156 L 185.347656 136.621094 L 189.292969 136.621094 Z M 185.347656 184.128906 L 189.292969 184.128906 L 189.292969 180.171875 L 185.347656 180.171875 Z M 189.292969 196.007812 L 185.347656 196.007812 L 185.347656 199.964844 L 189.292969 199.964844 Z M 185.347656 207.882812 L 189.292969 207.882812 L 189.292969 203.925781 L 185.347656 203.925781 Z M 185.347656 215.800781 L 189.292969 215.800781 L 189.292969 211.84375 L 185.347656 211.84375 Z M 185.347656 223.71875 L 189.292969 223.71875 L 189.292969 219.761719 L 185.347656 219.761719 Z M 185.347656 243.515625 L 189.292969 243.515625 L 189.292969 239.558594 L 185.347656 239.558594 Z M 189.292969 180.171875 L 193.238281 180.171875 L 193.238281 176.214844 L 189.292969 176.214844 Z M 189.292969 231.636719 L 193.238281 231.636719 L 193.238281 227.679688 L 189.292969 227.679688 Z M 189.292969 239.558594 L 193.238281 239.558594 L 193.238281 235.59375 L 189.292969 235.59375 Z M 197.183594 81.191406 L 197.183594 77.234375 L 193.238281 77.234375 L 193.238281 81.191406 Z M 197.183594 144.535156 L 193.238281 144.535156 L 193.238281 148.5 L 197.183594 148.5 Z M 193.238281 176.214844 L 197.183594 176.214844 L 197.183594 172.25 L 193.238281 172.25 Z M 197.183594 124.738281 L 193.238281 124.738281 L 193.238281 128.703125 L 201.128906 128.703125 L 201.128906 132.660156 L 205.078125 132.660156 L 205.078125 124.738281 L 209.019531 124.738281 L 209.019531 120.78125 L 197.183594 120.78125 Z M 201.128906 140.578125 L 197.183594 140.578125 L 197.183594 144.535156 L 201.128906 144.535156 Z M 205.078125 81.191406 L 201.128906 81.191406 L 201.128906 85.152344 L 205.078125 85.152344 Z M 205.078125 172.25 L 205.078125 168.292969 L 197.183594 168.292969 L 197.183594 172.25 Z M 205.078125 188.089844 L 201.128906 188.089844 L 201.128906 192.046875 L 205.078125 192.046875 Z M 209.019531 164.332031 L 205.078125 164.332031 L 205.078125 168.292969 L 209.019531 168.292969 Z M 205.078125 199.964844 L 209.019531 199.964844 L 209.019531 196.007812 L 205.078125 196.007812 Z M 205.078125 239.558594 L 209.019531 239.558594 L 209.019531 235.59375 L 205.078125 235.59375 Z M 212.96875 160.375 L 209.019531 160.375 L 209.019531 164.332031 L 212.96875 164.332031 Z M 209.019531 192.046875 L 212.96875 192.046875 L 212.96875 188.089844 L 209.019531 188.089844 Z M 209.019531 227.679688 L 212.96875 227.679688 L 212.96875 223.71875 L 209.019531 223.71875 Z M 212.96875 176.214844 L 216.910156 176.214844 L 216.910156 172.25 L 212.96875 172.25 Z M 220.855469 156.417969 L 216.910156 156.417969 L 216.910156 160.375 L 220.855469 160.375 Z M 216.910156 196.007812 L 220.855469 196.007812 L 220.855469 192.046875 L 216.910156 192.046875 Z M 224.804688 152.457031 L 220.855469 152.457031 L 220.855469 156.417969 L 224.804688 156.417969 Z M 220.855469 168.292969 L 224.804688 168.292969 L 224.804688 164.332031 L 220.855469 164.332031 Z M 228.746094 148.5 L 224.804688 148.5 L 224.804688 152.457031 L 228.746094 152.457031 Z M 232.695312 144.535156 L 228.746094 144.535156 L 228.746094 148.5 L 232.695312 148.5 Z M 228.746094 160.375 L 232.695312 160.375 L 232.695312 156.417969 L 228.746094 156.417969 Z M 236.640625 140.578125 L 236.640625 136.621094 L 232.695312 136.621094 L 232.695312 144.535156 L 236.640625 144.535156 Z M 232.695312 152.457031 L 232.695312 156.417969 L 240.585938 156.417969 L 240.585938 152.457031 Z M 232.695312 227.679688 L 232.695312 223.71875 L 224.804688 223.71875 L 224.804688 219.761719 L 212.96875 219.761719 L 212.96875 223.71875 L 220.855469 223.71875 L 220.855469 227.679688 L 216.910156 227.679688 L 216.910156 231.636719 L 209.019531 231.636719 L 209.019531 235.59375 L 216.910156 235.59375 L 216.910156 239.558594 L 220.855469 239.558594 L 220.855469 231.636719 L 228.746094 231.636719 L 228.746094 239.558594 L 232.695312 239.558594 L 232.695312 231.636719 L 236.640625 231.636719 L 236.640625 227.679688 Z M 236.640625 231.636719 L 236.640625 235.59375 L 240.585938 235.59375 L 240.585938 231.636719 Z M 240.585938 148.5 L 240.585938 152.457031 L 244.53125 152.457031 L 244.53125 148.5 Z M 240.585938 239.558594 L 244.53125 239.558594 L 244.53125 235.59375 L 240.585938 235.59375 Z M 248.476562 156.417969 L 248.476562 152.457031 L 244.53125 152.457031 L 244.53125 164.332031 L 248.476562 164.332031 Z M 248.476562 168.292969 L 252.421875 168.292969 L 252.421875 164.332031 L 248.476562 164.332031 Z M 256.367188 176.214844 L 260.3125 176.214844 L 260.3125 172.25 L 256.367188 172.25 Z M 268.203125 180.171875 L 268.203125 184.128906 L 264.257812 184.128906 L 264.257812 180.171875 L 268.203125 180.171875 " fill-opacity="1" fill-rule="nonzero"/></g><g clip-path="url(#id2)"><path fill="#7843e6" d="M 165.621094 160.375 L 169.5625 160.375 L 169.5625 164.332031 L 165.621094 164.332031 Z M 169.5625 164.332031 L 173.511719 164.332031 L 173.511719 168.292969 L 169.5625 168.292969 Z M 201.128906 168.292969 L 201.128906 164.332031 L 205.078125 164.332031 L 205.078125 168.292969 Z M 205.078125 164.332031 L 205.078125 160.375 L 209.019531 160.375 L 209.019531 164.332031 Z M 240.585938 239.558594 L 240.585938 235.59375 L 236.640625 235.59375 L 236.640625 239.558594 L 228.746094 239.558594 L 228.746094 235.59375 L 220.855469 235.59375 L 220.855469 239.558594 L 216.910156 239.558594 L 216.910156 235.59375 L 209.019531 235.59375 L 209.019531 239.558594 L 205.078125 239.558594 L 205.078125 235.59375 L 209.019531 235.59375 L 209.019531 231.636719 L 216.910156 231.636719 L 216.910156 227.679688 L 220.855469 227.679688 L 220.855469 223.71875 L 212.96875 223.71875 L 212.96875 227.679688 L 205.078125 227.679688 L 205.078125 223.71875 L 209.019531 223.71875 L 209.019531 219.761719 L 232.695312 219.761719 L 232.695312 223.71875 L 236.640625 223.71875 L 236.640625 227.679688 L 240.585938 227.679688 L 240.585938 231.636719 L 244.53125 231.636719 L 244.53125 239.558594 Z M 165.621094 239.558594 L 165.621094 235.59375 L 157.726562 235.59375 L 157.726562 239.558594 L 153.785156 239.558594 L 153.785156 235.59375 L 145.890625 235.59375 L 145.890625 239.558594 L 138 239.558594 L 138 235.59375 L 134.054688 235.59375 L 134.054688 239.558594 L 130.109375 239.558594 L 130.109375 231.636719 L 134.054688 231.636719 L 134.054688 227.679688 L 138 227.679688 L 138 223.71875 L 141.945312 223.71875 L 141.945312 219.761719 L 165.621094 219.761719 L 165.621094 223.71875 L 169.5625 223.71875 L 169.5625 227.679688 L 161.671875 227.679688 L 161.671875 223.71875 L 153.785156 223.71875 L 153.785156 227.679688 L 157.726562 227.679688 L 157.726562 231.636719 L 165.621094 231.636719 L 165.621094 235.59375 L 169.5625 235.59375 L 169.5625 239.558594 Z M 153.785156 168.292969 L 149.835938 168.292969 L 149.835938 164.332031 L 153.785156 164.332031 Z M 126.164062 223.71875 L 126.164062 219.761719 L 130.109375 219.761719 L 130.109375 223.71875 Z M 161.671875 172.25 L 161.671875 176.214844 L 157.726562 176.214844 L 157.726562 172.25 Z M 169.5625 199.964844 L 165.621094 199.964844 L 165.621094 196.007812 L 169.5625 196.007812 Z M 161.671875 192.046875 L 161.671875 196.007812 L 157.726562 196.007812 L 157.726562 192.046875 Z M 110.378906 215.800781 L 114.328125 215.800781 L 114.328125 219.761719 L 110.378906 219.761719 Z M 122.21875 223.71875 L 118.273438 223.71875 L 118.273438 219.761719 L 122.21875 219.761719 Z M 130.109375 172.25 L 138 172.25 L 138 176.214844 L 145.890625 176.214844 L 145.890625 180.171875 L 149.835938 180.171875 L 149.835938 184.128906 L 153.785156 184.128906 L 153.785156 188.089844 L 149.835938 188.089844 L 149.835938 184.128906 L 145.890625 184.128906 L 145.890625 180.171875 L 138 180.171875 L 138 176.214844 L 130.109375 176.214844 Z M 161.671875 156.417969 L 161.671875 152.457031 L 157.726562 152.457031 L 157.726562 148.5 L 153.785156 148.5 L 153.785156 140.578125 L 149.835938 140.578125 L 149.835938 128.703125 L 153.785156 128.703125 L 153.785156 124.738281 L 157.726562 124.738281 L 157.726562 120.78125 L 161.671875 120.78125 L 161.671875 116.824219 L 165.621094 116.824219 L 165.621094 112.863281 L 169.5625 112.863281 L 169.5625 108.90625 L 173.511719 108.90625 L 173.511719 100.988281 L 177.457031 100.988281 L 177.457031 108.90625 L 173.511719 108.90625 L 173.511719 112.863281 L 169.5625 112.863281 L 169.5625 116.824219 L 165.621094 116.824219 L 165.621094 120.78125 L 181.398438 120.78125 L 181.398438 128.703125 L 173.511719 128.703125 L 173.511719 132.660156 L 169.5625 132.660156 L 169.5625 128.703125 L 165.621094 128.703125 L 165.621094 120.78125 L 161.671875 120.78125 L 161.671875 124.738281 L 157.726562 124.738281 L 157.726562 128.703125 L 153.785156 128.703125 L 153.785156 140.578125 L 157.726562 140.578125 L 157.726562 148.5 L 161.671875 148.5 L 161.671875 152.457031 L 165.621094 152.457031 L 165.621094 156.417969 L 169.5625 156.417969 L 169.5625 160.375 L 173.511719 160.375 L 173.511719 164.332031 L 177.457031 164.332031 L 177.457031 168.292969 L 181.398438 168.292969 L 181.398438 172.25 L 185.347656 172.25 L 185.347656 176.214844 L 189.292969 176.214844 L 189.292969 172.25 L 193.238281 172.25 L 193.238281 168.292969 L 197.183594 168.292969 L 197.183594 164.332031 L 201.128906 164.332031 L 201.128906 160.375 L 205.078125 160.375 L 205.078125 156.417969 L 209.019531 156.417969 L 209.019531 152.457031 L 212.96875 152.457031 L 212.96875 148.5 L 216.910156 148.5 L 216.910156 140.578125 L 220.855469 140.578125 L 220.855469 128.703125 L 216.910156 128.703125 L 216.910156 124.738281 L 212.96875 124.738281 L 212.96875 120.78125 L 209.019531 120.78125 L 209.019531 128.703125 L 205.078125 128.703125 L 205.078125 132.660156 L 201.128906 132.660156 L 201.128906 128.703125 L 193.238281 128.703125 L 193.238281 120.78125 L 209.019531 120.78125 L 209.019531 116.824219 L 205.078125 116.824219 L 205.078125 112.863281 L 201.128906 112.863281 L 201.128906 108.90625 L 197.183594 108.90625 L 197.183594 100.988281 L 201.128906 100.988281 L 201.128906 108.90625 L 205.078125 108.90625 L 205.078125 112.863281 L 209.019531 112.863281 L 209.019531 116.824219 L 212.96875 116.824219 L 212.96875 120.78125 L 216.910156 120.78125 L 216.910156 124.738281 L 220.855469 124.738281 L 220.855469 128.703125 L 224.804688 128.703125 L 224.804688 140.578125 L 220.855469 140.578125 L 220.855469 148.5 L 216.910156 148.5 L 216.910156 152.457031 L 212.96875 152.457031 L 212.96875 156.417969 L 209.019531 156.417969 L 209.019531 160.375 L 212.96875 160.375 L 212.96875 164.332031 L 209.019531 164.332031 L 209.019531 168.292969 L 205.078125 168.292969 L 205.078125 192.046875 L 201.128906 192.046875 L 201.128906 172.25 L 197.183594 172.25 L 197.183594 176.214844 L 193.238281 176.214844 L 193.238281 180.171875 L 189.292969 180.171875 L 189.292969 184.128906 L 185.347656 184.128906 L 185.347656 180.171875 L 181.398438 180.171875 L 181.398438 176.214844 L 177.457031 176.214844 L 177.457031 172.25 L 173.511719 172.25 L 173.511719 192.046875 L 169.5625 192.046875 L 169.5625 168.292969 L 165.621094 168.292969 L 165.621094 164.332031 L 161.671875 164.332031 L 161.671875 160.375 L 165.621094 160.375 L 165.621094 156.417969 Z M 201.128906 144.535156 L 197.183594 144.535156 L 197.183594 148.5 L 193.238281 148.5 L 193.238281 152.457031 L 181.398438 152.457031 L 181.398438 148.5 L 177.457031 148.5 L 177.457031 144.535156 L 173.511719 144.535156 L 173.511719 140.578125 L 177.457031 140.578125 L 177.457031 144.535156 L 181.398438 144.535156 L 181.398438 148.5 L 193.238281 148.5 L 193.238281 144.535156 L 197.183594 144.535156 L 197.183594 140.578125 L 201.128906 140.578125 Z M 189.292969 132.660156 L 189.292969 136.621094 L 185.347656 136.621094 L 185.347656 132.660156 Z M 193.238281 100.988281 L 189.292969 100.988281 L 189.292969 97.03125 L 185.347656 97.03125 L 185.347656 100.988281 L 181.398438 100.988281 L 181.398438 97.03125 L 185.347656 97.03125 L 185.347656 93.070312 L 189.292969 93.070312 L 189.292969 97.03125 L 193.238281 97.03125 Z M 224.804688 164.332031 L 224.804688 168.292969 L 220.855469 168.292969 L 220.855469 164.332031 Z M 240.585938 219.761719 L 240.585938 215.800781 L 244.53125 215.800781 L 244.53125 211.84375 L 248.476562 211.84375 L 248.476562 215.800781 L 244.53125 215.800781 L 244.53125 223.71875 L 240.585938 223.71875 Z M 209.019531 199.964844 L 205.078125 199.964844 L 205.078125 196.007812 L 209.019531 196.007812 Z M 216.910156 172.25 L 216.910156 176.214844 L 212.96875 176.214844 L 212.96875 172.25 Z M 244.53125 176.214844 L 236.640625 176.214844 L 236.640625 180.171875 L 228.746094 180.171875 L 228.746094 184.128906 L 224.804688 184.128906 L 224.804688 188.089844 L 220.855469 188.089844 L 220.855469 184.128906 L 224.804688 184.128906 L 224.804688 180.171875 L 228.746094 180.171875 L 228.746094 176.214844 L 236.640625 176.214844 L 236.640625 172.25 L 244.53125 172.25 Z M 216.910156 192.046875 L 220.855469 192.046875 L 220.855469 196.007812 L 216.910156 196.007812 Z M 260.3125 219.761719 L 252.421875 219.761719 L 252.421875 215.800781 L 260.3125 215.800781 Z M 264.257812 211.84375 L 260.3125 211.84375 L 260.3125 207.882812 L 264.257812 207.882812 Z M 209.019531 188.089844 L 212.96875 188.089844 L 212.96875 192.046875 L 209.019531 192.046875 Z M 272.148438 199.964844 L 272.148438 192.046875 L 268.203125 192.046875 L 268.203125 188.089844 L 264.257812 188.089844 L 264.257812 180.171875 L 260.3125 180.171875 L 260.3125 176.214844 L 256.367188 176.214844 L 256.367188 172.25 L 252.421875 172.25 L 252.421875 168.292969 L 248.476562 168.292969 L 248.476562 164.332031 L 244.53125 164.332031 L 244.53125 152.457031 L 240.585938 152.457031 L 240.585938 156.417969 L 232.695312 156.417969 L 232.695312 160.375 L 228.746094 160.375 L 228.746094 156.417969 L 232.695312 156.417969 L 232.695312 152.457031 L 240.585938 152.457031 L 240.585938 140.578125 L 236.640625 140.578125 L 236.640625 144.535156 L 232.695312 144.535156 L 232.695312 148.5 L 228.746094 148.5 L 228.746094 152.457031 L 224.804688 152.457031 L 224.804688 156.417969 L 220.855469 156.417969 L 220.855469 160.375 L 216.910156 160.375 L 216.910156 156.417969 L 220.855469 156.417969 L 220.855469 152.457031 L 224.804688 152.457031 L 224.804688 148.5 L 228.746094 148.5 L 228.746094 144.535156 L 232.695312 144.535156 L 232.695312 136.621094 L 228.746094 136.621094 L 228.746094 112.863281 L 224.804688 112.863281 L 224.804688 108.90625 L 220.855469 108.90625 L 220.855469 100.988281 L 216.910156 100.988281 L 216.910156 93.070312 L 212.96875 93.070312 L 212.96875 89.109375 L 209.019531 89.109375 L 209.019531 85.152344 L 201.128906 85.152344 L 201.128906 81.191406 L 193.238281 81.191406 L 193.238281 77.234375 L 181.398438 77.234375 L 181.398438 81.191406 L 173.511719 81.191406 L 173.511719 85.152344 L 165.621094 85.152344 L 165.621094 89.109375 L 161.671875 89.109375 L 161.671875 93.070312 L 157.726562 93.070312 L 157.726562 100.988281 L 153.785156 100.988281 L 153.785156 108.90625 L 149.835938 108.90625 L 149.835938 112.863281 L 145.890625 112.863281 L 145.890625 136.621094 L 141.945312 136.621094 L 141.945312 144.535156 L 145.890625 144.535156 L 145.890625 148.5 L 149.835938 148.5 L 149.835938 152.457031 L 153.785156 152.457031 L 153.785156 156.417969 L 157.726562 156.417969 L 157.726562 160.375 L 153.785156 160.375 L 153.785156 156.417969 L 149.835938 156.417969 L 149.835938 152.457031 L 145.890625 152.457031 L 145.890625 148.5 L 141.945312 148.5 L 141.945312 144.535156 L 138 144.535156 L 138 140.578125 L 134.054688 140.578125 L 134.054688 152.457031 L 141.945312 152.457031 L 141.945312 156.417969 L 145.890625 156.417969 L 145.890625 160.375 L 141.945312 160.375 L 141.945312 156.417969 L 134.054688 156.417969 L 134.054688 152.457031 L 130.109375 152.457031 L 130.109375 164.332031 L 126.164062 164.332031 L 126.164062 168.292969 L 122.21875 168.292969 L 122.21875 172.25 L 118.273438 172.25 L 118.273438 176.214844 L 114.328125 176.214844 L 114.328125 180.171875 L 110.378906 180.171875 L 110.378906 188.089844 L 106.433594 188.089844 L 106.433594 192.046875 L 102.492188 192.046875 L 102.492188 199.964844 L 98.542969 199.964844 L 98.542969 223.71875 L 102.492188 223.71875 L 102.492188 231.636719 L 106.433594 231.636719 L 106.433594 235.59375 L 110.378906 235.59375 L 110.378906 239.558594 L 114.328125 239.558594 L 114.328125 243.515625 L 185.347656 243.515625 L 185.347656 235.59375 L 189.292969 235.59375 L 189.292969 227.679688 L 185.347656 227.679688 L 185.347656 192.046875 L 189.292969 192.046875 L 189.292969 223.71875 L 193.238281 223.71875 L 193.238281 239.558594 L 189.292969 239.558594 L 189.292969 243.515625 L 256.367188 243.515625 L 256.367188 239.558594 L 260.3125 239.558594 L 260.3125 235.59375 L 264.257812 235.59375 L 264.257812 231.636719 L 268.203125 231.636719 L 268.203125 227.679688 L 272.148438 227.679688 L 272.148438 219.761719 L 276.097656 219.761719 L 276.097656 199.964844 L 272.148438 199.964844 " fill-opacity="1" fill-rule="nonzero"/></g><g clip-path="url(#id3)"><path fill="#00ffff" d="M 160.816406 135.027344 L 164.632812 135.027344 L 164.632812 131.148438 L 160.816406 131.148438 L 160.816406 135.027344 " fill-opacity="1" fill-rule="nonzero"/></g><g clip-path="url(#id4)"><path fill="#00ffff" d="M 214.226562 135.027344 L 214.226562 131.148438 L 210.414062 131.148438 L 210.414062 135.027344 L 214.226562 135.027344 " fill-opacity="1" fill-rule="nonzero"/></g><g clip-path="url(#id5)"><path fill="#00ffff" d="M 225.671875 111.773438 L 145.554688 111.773438 L 145.554688 115.648438 L 149.371094 115.648438 L 149.371094 123.398438 L 153.1875 123.398438 L 153.1875 131.148438 L 157 131.148438 L 157 123.398438 L 153.1875 123.398438 L 153.1875 119.523438 L 157 119.523438 L 157 123.398438 L 160.816406 123.398438 L 160.816406 127.273438 L 164.632812 127.273438 L 164.632812 123.398438 L 168.445312 123.398438 L 168.445312 127.273438 L 164.632812 127.273438 L 164.632812 131.148438 L 168.445312 131.148438 L 168.445312 135.027344 L 176.078125 135.027344 L 176.078125 131.148438 L 183.707031 131.148438 L 183.707031 127.273438 L 191.335938 127.273438 L 191.335938 131.148438 L 198.96875 131.148438 L 198.96875 135.027344 L 206.597656 135.027344 L 206.597656 131.148438 L 202.78125 131.148438 L 202.78125 127.273438 L 206.597656 127.273438 L 206.597656 131.148438 L 210.414062 131.148438 L 210.414062 127.273438 L 214.226562 127.273438 L 214.226562 123.398438 L 218.042969 123.398438 L 218.042969 119.523438 L 221.859375 119.523438 L 221.859375 123.398438 L 218.042969 123.398438 L 218.042969 131.148438 L 221.859375 131.148438 L 221.859375 123.398438 L 225.671875 123.398438 L 225.671875 115.648438 L 229.488281 115.648438 L 229.488281 111.773438 L 225.671875 111.773438 " fill-opacity="1" fill-rule="nonzero"/></g><path fill="#7843e6" d="M 157 123.398438 L 153.1875 123.398438 L 153.1875 119.523438 L 157 119.523438 L 157 123.398438 " fill-opacity="1" fill-rule="nonzero"/><path fill="#7843e6" d="M 160.816406 127.273438 L 157 127.273438 L 157 123.398438 L 160.816406 123.398438 L 160.816406 127.273438 " fill-opacity="1" fill-rule="nonzero"/><path fill="#00ffff" d="M 160.816406 131.148438 L 157 131.148438 L 157 127.273438 L 160.816406 127.273438 L 160.816406 131.148438 " fill-opacity="1" fill-rule="nonzero"/><path fill="#7843e6" d="M 164.632812 131.148438 L 160.816406 131.148438 L 160.816406 127.273438 L 164.632812 127.273438 L 164.632812 131.148438 " fill-opacity="1" fill-rule="nonzero"/><path fill="#7843e6" d="M 168.445312 127.273438 L 164.632812 127.273438 L 164.632812 123.398438 L 168.445312 123.398438 L 168.445312 127.273438 " fill-opacity="1" fill-rule="nonzero"/><g clip-path="url(#id6)"><path fill="#00ffff" d="M 168.445312 135.027344 L 164.632812 135.027344 L 164.632812 131.148438 L 168.445312 131.148438 L 168.445312 135.027344 " fill-opacity="1" fill-rule="nonzero"/></g><path fill="#7843e6" d="M 218.042969 123.398438 L 221.859375 123.398438 L 221.859375 119.523438 L 218.042969 119.523438 L 218.042969 123.398438 " fill-opacity="1" fill-rule="nonzero"/><path fill="#7843e6" d="M 214.226562 127.273438 L 218.042969 127.273438 L 218.042969 123.398438 L 214.226562 123.398438 L 214.226562 127.273438 " fill-opacity="1" fill-rule="nonzero"/><path fill="#00ffff" d="M 214.226562 131.148438 L 218.042969 131.148438 L 218.042969 127.273438 L 214.226562 127.273438 L 214.226562 131.148438 " fill-opacity="1" fill-rule="nonzero"/><path fill="#7843e6" d="M 210.414062 131.148438 L 214.226562 131.148438 L 214.226562 127.273438 L 210.414062 127.273438 L 210.414062 131.148438 " fill-opacity="1" fill-rule="nonzero"/><g clip-path="url(#id7)"><path fill="#00ffff" d="M 206.597656 135.027344 L 210.414062 135.027344 L 210.414062 131.148438 L 206.597656 131.148438 L 206.597656 135.027344 " fill-opacity="1" fill-rule="nonzero"/></g><path fill="#7843e6" d="M 202.78125 131.148438 L 206.597656 131.148438 L 206.597656 127.273438 L 202.78125 127.273438 L 202.78125 131.148438 " fill-opacity="1" fill-rule="nonzero"/><g fill="#ff00ff" fill-opacity="1"><g transform="translate(69.065983, 287.033888)"><g><path d="M 23.734375 0 L 5.640625 0 C 4.953125 0 4.457031 -0.148438 4.15625 -0.453125 C 3.851562 -0.753906 3.703125 -1.25 3.703125 -1.9375 L 3.703125 -36.71875 C 3.703125 -37.40625 3.851562 -37.898438 4.15625 -38.203125 C 4.457031 -38.503906 4.953125 -38.65625 5.640625 -38.65625 L 23.734375 -38.65625 C 28.203125 -38.65625 31.519531 -37.757812 33.6875 -35.96875 C 35.851562 -34.175781 36.9375 -31.421875 36.9375 -27.703125 L 36.9375 -10.953125 C 36.9375 -7.234375 35.851562 -4.476562 33.6875 -2.6875 C 31.519531 -0.894531 28.203125 0 23.734375 0 Z M 15.890625 -28.40625 L 15.890625 -10.140625 L 22.28125 -10.140625 C 23.132812 -10.140625 23.765625 -10.351562 24.171875 -10.78125 C 24.585938 -11.21875 24.796875 -11.882812 24.796875 -12.78125 L 24.796875 -25.828125 C 24.796875 -26.722656 24.585938 -27.375 24.171875 -27.78125 C 23.765625 -28.195312 23.132812 -28.40625 22.28125 -28.40625 Z M 15.890625 -28.40625 "/></g></g></g><g fill="#ff00ff" fill-opacity="1"><g transform="translate(109.113882, 287.033888)"><g><path d="M 30.546875 0 L 5.640625 0 C 4.953125 0 4.457031 -0.148438 4.15625 -0.453125 C 3.851562 -0.753906 3.703125 -1.25 3.703125 -1.9375 L 3.703125 -36.71875 C 3.703125 -37.40625 3.851562 -37.898438 4.15625 -38.203125 C 4.457031 -38.503906 4.953125 -38.65625 5.640625 -38.65625 L 30.546875 -38.65625 C 31.222656 -38.65625 31.710938 -38.503906 32.015625 -38.203125 C 32.328125 -37.898438 32.484375 -37.40625 32.484375 -36.71875 L 32.484375 -30.4375 C 32.484375 -29.757812 32.328125 -29.269531 32.015625 -28.96875 C 31.710938 -28.664062 31.222656 -28.515625 30.546875 -28.515625 L 15.734375 -28.515625 L 15.734375 -24.375 L 26.203125 -24.375 C 26.878906 -24.375 27.367188 -24.222656 27.671875 -23.921875 C 27.972656 -23.617188 28.125 -23.125 28.125 -22.4375 L 28.125 -16.703125 C 28.125 -16.015625 27.972656 -15.519531 27.671875 -15.21875 C 27.367188 -14.914062 26.878906 -14.765625 26.203125 -14.765625 L 15.734375 -14.765625 L 15.734375 -10.140625 L 30.546875 -10.140625 C 31.222656 -10.140625 31.710938 -9.988281 32.015625 -9.6875 C 32.328125 -9.382812 32.484375 -8.894531 32.484375 -8.21875 L 32.484375 -1.9375 C 32.484375 -1.25 32.328125 -0.753906 32.015625 -0.453125 C 31.710938 -0.148438 31.222656 0 30.546875 0 Z M 30.546875 0 "/></g></g></g><g fill="#ff00ff" fill-opacity="1"><g transform="translate(144.2229, 287.033888)"><g><path d="M 26.578125 0 L 12.609375 0 C 11.929688 0 11.367188 -0.125 10.921875 -0.375 C 10.472656 -0.625 10.125 -1.085938 9.875 -1.765625 L 4.609375 -14.921875 C 4.296875 -15.710938 4.03125 -16.398438 3.8125 -16.984375 C 3.59375 -17.578125 3.410156 -18.140625 3.265625 -18.671875 C 3.128906 -19.210938 3.035156 -19.78125 2.984375 -20.375 C 2.929688 -20.96875 2.90625 -21.691406 2.90625 -22.546875 L 2.90625 -36.71875 C 2.90625 -37.40625 3.054688 -37.898438 3.359375 -38.203125 C 3.660156 -38.503906 4.148438 -38.65625 4.828125 -38.65625 L 13.375 -38.65625 C 14.050781 -38.65625 14.566406 -38.503906 14.921875 -38.203125 C 15.285156 -37.898438 15.46875 -37.40625 15.46875 -36.71875 L 15.46875 -21.90625 C 15.46875 -21.550781 15.5 -21.191406 15.5625 -20.828125 C 15.632812 -20.472656 15.742188 -20.097656 15.890625 -19.703125 L 18.421875 -12.1875 C 18.523438 -11.832031 18.644531 -11.59375 18.78125 -11.46875 C 18.925781 -11.34375 19.144531 -11.28125 19.4375 -11.28125 L 20.03125 -11.28125 C 20.3125 -11.28125 20.523438 -11.34375 20.671875 -11.46875 C 20.816406 -11.59375 20.941406 -11.832031 21.046875 -12.1875 L 23.5625 -19.75 C 23.707031 -20.144531 23.816406 -20.519531 23.890625 -20.875 C 23.960938 -21.238281 24 -21.597656 24 -21.953125 L 24 -36.71875 C 24 -37.40625 24.148438 -37.898438 24.453125 -38.203125 C 24.753906 -38.503906 25.25 -38.65625 25.9375 -38.65625 L 34.359375 -38.65625 C 35.035156 -38.65625 35.523438 -38.503906 35.828125 -38.203125 C 36.140625 -37.898438 36.296875 -37.40625 36.296875 -36.71875 L 36.296875 -22.546875 C 36.296875 -21.691406 36.265625 -20.96875 36.203125 -20.375 C 36.148438 -19.78125 36.050781 -19.210938 35.90625 -18.671875 C 35.769531 -18.140625 35.59375 -17.578125 35.375 -16.984375 C 35.164062 -16.398438 34.898438 -15.710938 34.578125 -14.921875 L 29.3125 -1.765625 C 29.0625 -1.085938 28.710938 -0.625 28.265625 -0.375 C 27.816406 -0.125 27.253906 0 26.578125 0 Z M 26.578125 0 "/></g></g></g><g fill="#ff00ff" fill-opacity="1"><g transform="translate(183.411862, 287.033888)"><g><path d="M 13.953125 0 L 5.640625 0 C 4.953125 0 4.457031 -0.148438 4.15625 -0.453125 C 3.851562 -0.753906 3.703125 -1.25 3.703125 -1.9375 L 3.703125 -36.71875 C 3.703125 -37.40625 3.851562 -37.898438 4.15625 -38.203125 C 4.457031 -38.503906 4.953125 -38.65625 5.640625 -38.65625 L 13.953125 -38.65625 C 14.640625 -38.65625 15.132812 -38.503906 15.4375 -38.203125 C 15.738281 -37.898438 15.890625 -37.40625 15.890625 -36.71875 L 15.890625 -25.078125 L 24.859375 -25.078125 L 24.859375 -36.71875 C 24.859375 -37.40625 25.007812 -37.898438 25.3125 -38.203125 C 25.613281 -38.503906 26.109375 -38.65625 26.796875 -38.65625 L 35.109375 -38.65625 C 35.785156 -38.65625 36.273438 -38.503906 36.578125 -38.203125 C 36.890625 -37.898438 37.046875 -37.40625 37.046875 -36.71875 L 37.046875 -1.9375 C 37.046875 -1.25 36.890625 -0.753906 36.578125 -0.453125 C 36.273438 -0.148438 35.785156 0 35.109375 0 L 26.796875 0 C 26.109375 0 25.613281 -0.148438 25.3125 -0.453125 C 25.007812 -0.753906 24.859375 -1.25 24.859375 -1.9375 L 24.859375 -13.84375 L 15.890625 -13.84375 L 15.890625 -1.9375 C 15.890625 -1.25 15.738281 -0.753906 15.4375 -0.453125 C 15.132812 -0.148438 14.640625 0 13.953125 0 Z M 13.953125 0 "/></g></g></g><g fill="#ff00ff" fill-opacity="1"><g transform="translate(224.157655, 287.033888)"><g><path d="M 36.609375 -10.140625 C 36.609375 -8.492188 36.367188 -7 35.890625 -5.65625 C 35.410156 -4.320312 34.550781 -3.179688 33.3125 -2.234375 C 32.070312 -1.285156 30.378906 -0.539062 28.234375 0 C 26.085938 0.539062 23.351562 0.8125 20.03125 0.8125 C 16.695312 0.8125 13.957031 0.539062 11.8125 0 C 9.664062 -0.539062 7.972656 -1.285156 6.734375 -2.234375 C 5.503906 -3.179688 4.644531 -4.320312 4.15625 -5.65625 C 3.675781 -7 3.4375 -8.492188 3.4375 -10.140625 L 3.4375 -36.71875 C 3.4375 -37.40625 3.585938 -37.898438 3.890625 -38.203125 C 4.191406 -38.503906 4.6875 -38.65625 5.375 -38.65625 L 13.796875 -38.65625 C 14.472656 -38.65625 14.960938 -38.503906 15.265625 -38.203125 C 15.578125 -37.898438 15.734375 -37.40625 15.734375 -36.71875 L 15.734375 -12.234375 C 15.734375 -11.523438 16 -10.925781 16.53125 -10.4375 C 17.070312 -9.957031 18.273438 -9.71875 20.140625 -9.71875 C 22.035156 -9.71875 23.25 -9.957031 23.78125 -10.4375 C 24.320312 -10.925781 24.59375 -11.523438 24.59375 -12.234375 L 24.59375 -36.71875 C 24.59375 -37.40625 24.742188 -37.898438 25.046875 -38.203125 C 25.347656 -38.503906 25.835938 -38.65625 26.515625 -38.65625 L 34.6875 -38.65625 C 35.363281 -38.65625 35.851562 -38.503906 36.15625 -38.203125 C 36.457031 -37.898438 36.609375 -37.40625 36.609375 -36.71875 Z M 36.609375 -10.140625 "/></g></g></g><g fill="#ff00ff" fill-opacity="1"><g transform="translate(264.205542, 287.033888)"><g><path d="M 26.25 0 L 5.640625 0 C 4.953125 0 4.457031 -0.148438 4.15625 -0.453125 C 3.851562 -0.753906 3.703125 -1.25 3.703125 -1.9375 L 3.703125 -36.71875 C 3.703125 -37.40625 3.851562 -37.898438 4.15625 -38.203125 C 4.457031 -38.503906 4.953125 -38.65625 5.640625 -38.65625 L 22.765625 -38.65625 C 26.273438 -38.65625 28.867188 -37.984375 30.546875 -36.640625 C 32.234375 -35.296875 33.078125 -33.226562 33.078125 -30.4375 L 33.078125 -27.859375 C 33.078125 -26.359375 32.816406 -25.132812 32.296875 -24.1875 C 31.773438 -23.238281 30.976562 -22.53125 29.90625 -22.0625 C 32.195312 -21.851562 33.894531 -21.066406 35 -19.703125 C 36.113281 -18.335938 36.671875 -16.351562 36.671875 -13.75 L 36.671875 -8.8125 C 36.671875 -5.800781 35.816406 -3.578125 34.109375 -2.140625 C 32.410156 -0.710938 29.789062 0 26.25 0 Z M 15.78125 -29.53125 L 15.78125 -23.734375 L 20.34375 -23.734375 C 21.03125 -23.734375 21.539062 -23.910156 21.875 -24.265625 C 22.21875 -24.617188 22.390625 -25.15625 22.390625 -25.875 L 22.390625 -27.375 C 22.390625 -28.09375 22.21875 -28.628906 21.875 -28.984375 C 21.539062 -29.347656 21.03125 -29.53125 20.34375 -29.53125 Z M 15.78125 -15.46875 L 15.78125 -9.125 L 22.765625 -9.125 C 23.441406 -9.125 23.945312 -9.300781 24.28125 -9.65625 C 24.625 -10.019531 24.796875 -10.5625 24.796875 -11.28125 L 24.796875 -13.375 C 24.796875 -14.082031 24.625 -14.609375 24.28125 -14.953125 C 23.945312 -15.296875 23.441406 -15.46875 22.765625 -15.46875 Z M 15.78125 -15.46875 "/></g></g></g><g fill="#00ffff" fill-opacity="1"><g transform="translate(71.863704, 284.424987)"><g><path d="M 23.734375 0 L 5.640625 0 C 4.953125 0 4.457031 -0.148438 4.15625 -0.453125 C 3.851562 -0.753906 3.703125 -1.25 3.703125 -1.9375 L 3.703125 -36.71875 C 3.703125 -37.40625 3.851562 -37.898438 4.15625 -38.203125 C 4.457031 -38.503906 4.953125 -38.65625 5.640625 -38.65625 L 23.734375 -38.65625 C 28.203125 -38.65625 31.519531 -37.757812 33.6875 -35.96875 C 35.851562 -34.175781 36.9375 -31.421875 36.9375 -27.703125 L 36.9375 -10.953125 C 36.9375 -7.234375 35.851562 -4.476562 33.6875 -2.6875 C 31.519531 -0.894531 28.203125 0 23.734375 0 Z M 15.890625 -28.40625 L 15.890625 -10.140625 L 22.28125 -10.140625 C 23.132812 -10.140625 23.765625 -10.351562 24.171875 -10.78125 C 24.585938 -11.21875 24.796875 -11.882812 24.796875 -12.78125 L 24.796875 -25.828125 C 24.796875 -26.722656 24.585938 -27.375 24.171875 -27.78125 C 23.765625 -28.195312 23.132812 -28.40625 22.28125 -28.40625 Z M 15.890625 -28.40625 "/></g></g></g><g fill="#00ffff" fill-opacity="1"><g transform="translate(111.911603, 284.424987)"><g><path d="M 30.546875 0 L 5.640625 0 C 4.953125 0 4.457031 -0.148438 4.15625 -0.453125 C 3.851562 -0.753906 3.703125 -1.25 3.703125 -1.9375 L 3.703125 -36.71875 C 3.703125 -37.40625 3.851562 -37.898438 4.15625 -38.203125 C 4.457031 -38.503906 4.953125 -38.65625 5.640625 -38.65625 L 30.546875 -38.65625 C 31.222656 -38.65625 31.710938 -38.503906 32.015625 -38.203125 C 32.328125 -37.898438 32.484375 -37.40625 32.484375 -36.71875 L 32.484375 -30.4375 C 32.484375 -29.757812 32.328125 -29.269531 32.015625 -28.96875 C 31.710938 -28.664062 31.222656 -28.515625 30.546875 -28.515625 L 15.734375 -28.515625 L 15.734375 -24.375 L 26.203125 -24.375 C 26.878906 -24.375 27.367188 -24.222656 27.671875 -23.921875 C 27.972656 -23.617188 28.125 -23.125 28.125 -22.4375 L 28.125 -16.703125 C 28.125 -16.015625 27.972656 -15.519531 27.671875 -15.21875 C 27.367188 -14.914062 26.878906 -14.765625 26.203125 -14.765625 L 15.734375 -14.765625 L 15.734375 -10.140625 L 30.546875 -10.140625 C 31.222656 -10.140625 31.710938 -9.988281 32.015625 -9.6875 C 32.328125 -9.382812 32.484375 -8.894531 32.484375 -8.21875 L 32.484375 -1.9375 C 32.484375 -1.25 32.328125 -0.753906 32.015625 -0.453125 C 31.710938 -0.148438 31.222656 0 30.546875 0 Z M 30.546875 0 "/></g></g></g><g fill="#00ffff" fill-opacity="1"><g transform="translate(147.020621, 284.424987)"><g><path d="M 26.578125 0 L 12.609375 0 C 11.929688 0 11.367188 -0.125 10.921875 -0.375 C 10.472656 -0.625 10.125 -1.085938 9.875 -1.765625 L 4.609375 -14.921875 C 4.296875 -15.710938 4.03125 -16.398438 3.8125 -16.984375 C 3.59375 -17.578125 3.410156 -18.140625 3.265625 -18.671875 C 3.128906 -19.210938 3.035156 -19.78125 2.984375 -20.375 C 2.929688 -20.96875 2.90625 -21.691406 2.90625 -22.546875 L 2.90625 -36.71875 C 2.90625 -37.40625 3.054688 -37.898438 3.359375 -38.203125 C 3.660156 -38.503906 4.148438 -38.65625 4.828125 -38.65625 L 13.375 -38.65625 C 14.050781 -38.65625 14.566406 -38.503906 14.921875 -38.203125 C 15.285156 -37.898438 15.46875 -37.40625 15.46875 -36.71875 L 15.46875 -21.90625 C 15.46875 -21.550781 15.5 -21.191406 15.5625 -20.828125 C 15.632812 -20.472656 15.742188 -20.097656 15.890625 -19.703125 L 18.421875 -12.1875 C 18.523438 -11.832031 18.644531 -11.59375 18.78125 -11.46875 C 18.925781 -11.34375 19.144531 -11.28125 19.4375 -11.28125 L 20.03125 -11.28125 C 20.3125 -11.28125 20.523438 -11.34375 20.671875 -11.46875 C 20.816406 -11.59375 20.941406 -11.832031 21.046875 -12.1875 L 23.5625 -19.75 C 23.707031 -20.144531 23.816406 -20.519531 23.890625 -20.875 C 23.960938 -21.238281 24 -21.597656 24 -21.953125 L 24 -36.71875 C 24 -37.40625 24.148438 -37.898438 24.453125 -38.203125 C 24.753906 -38.503906 25.25 -38.65625 25.9375 -38.65625 L 34.359375 -38.65625 C 35.035156 -38.65625 35.523438 -38.503906 35.828125 -38.203125 C 36.140625 -37.898438 36.296875 -37.40625 36.296875 -36.71875 L 36.296875 -22.546875 C 36.296875 -21.691406 36.265625 -20.96875 36.203125 -20.375 C 36.148438 -19.78125 36.050781 -19.210938 35.90625 -18.671875 C 35.769531 -18.140625 35.59375 -17.578125 35.375 -16.984375 C 35.164062 -16.398438 34.898438 -15.710938 34.578125 -14.921875 L 29.3125 -1.765625 C 29.0625 -1.085938 28.710938 -0.625 28.265625 -0.375 C 27.816406 -0.125 27.253906 0 26.578125 0 Z M 26.578125 0 "/></g></g></g><g fill="#00ffff" fill-opacity="1"><g transform="translate(186.209583, 284.424987)"><g><path d="M 13.953125 0 L 5.640625 0 C 4.953125 0 4.457031 -0.148438 4.15625 -0.453125 C 3.851562 -0.753906 3.703125 -1.25 3.703125 -1.9375 L 3.703125 -36.71875 C 3.703125 -37.40625 3.851562 -37.898438 4.15625 -38.203125 C 4.457031 -38.503906 4.953125 -38.65625 5.640625 -38.65625 L 13.953125 -38.65625 C 14.640625 -38.65625 15.132812 -38.503906 15.4375 -38.203125 C 15.738281 -37.898438 15.890625 -37.40625 15.890625 -36.71875 L 15.890625 -25.078125 L 24.859375 -25.078125 L 24.859375 -36.71875 C 24.859375 -37.40625 25.007812 -37.898438 25.3125 -38.203125 C 25.613281 -38.503906 26.109375 -38.65625 26.796875 -38.65625 L 35.109375 -38.65625 C 35.785156 -38.65625 36.273438 -38.503906 36.578125 -38.203125 C 36.890625 -37.898438 37.046875 -37.40625 37.046875 -36.71875 L 37.046875 -1.9375 C 37.046875 -1.25 36.890625 -0.753906 36.578125 -0.453125 C 36.273438 -0.148438 35.785156 0 35.109375 0 L 26.796875 0 C 26.109375 0 25.613281 -0.148438 25.3125 -0.453125 C 25.007812 -0.753906 24.859375 -1.25 24.859375 -1.9375 L 24.859375 -13.84375 L 15.890625 -13.84375 L 15.890625 -1.9375 C 15.890625 -1.25 15.738281 -0.753906 15.4375 -0.453125 C 15.132812 -0.148438 14.640625 0 13.953125 0 Z M 13.953125 0 "/></g></g></g><g fill="#00ffff" fill-opacity="1"><g transform="translate(226.955376, 284.424987)"><g><path d="M 36.609375 -10.140625 C 36.609375 -8.492188 36.367188 -7 35.890625 -5.65625 C 35.410156 -4.320312 34.550781 -3.179688 33.3125 -2.234375 C 32.070312 -1.285156 30.378906 -0.539062 28.234375 0 C 26.085938 0.539062 23.351562 0.8125 20.03125 0.8125 C 16.695312 0.8125 13.957031 0.539062 11.8125 0 C 9.664062 -0.539062 7.972656 -1.285156 6.734375 -2.234375 C 5.503906 -3.179688 4.644531 -4.320312 4.15625 -5.65625 C 3.675781 -7 3.4375 -8.492188 3.4375 -10.140625 L 3.4375 -36.71875 C 3.4375 -37.40625 3.585938 -37.898438 3.890625 -38.203125 C 4.191406 -38.503906 4.6875 -38.65625 5.375 -38.65625 L 13.796875 -38.65625 C 14.472656 -38.65625 14.960938 -38.503906 15.265625 -38.203125 C 15.578125 -37.898438 15.734375 -37.40625 15.734375 -36.71875 L 15.734375 -12.234375 C 15.734375 -11.523438 16 -10.925781 16.53125 -10.4375 C 17.070312 -9.957031 18.273438 -9.71875 20.140625 -9.71875 C 22.035156 -9.71875 23.25 -9.957031 23.78125 -10.4375 C 24.320312 -10.925781 24.59375 -11.523438 24.59375 -12.234375 L 24.59375 -36.71875 C 24.59375 -37.40625 24.742188 -37.898438 25.046875 -38.203125 C 25.347656 -38.503906 25.835938 -38.65625 26.515625 -38.65625 L 34.6875 -38.65625 C 35.363281 -38.65625 35.851562 -38.503906 36.15625 -38.203125 C 36.457031 -37.898438 36.609375 -37.40625 36.609375 -36.71875 Z M 36.609375 -10.140625 "/></g></g></g><g fill="#00ffff" fill-opacity="1"><g transform="translate(267.003263, 284.424987)"><g><path d="M 26.25 0 L 5.640625 0 C 4.953125 0 4.457031 -0.148438 4.15625 -0.453125 C 3.851562 -0.753906 3.703125 -1.25 3.703125 -1.9375 L 3.703125 -36.71875 C 3.703125 -37.40625 3.851562 -37.898438 4.15625 -38.203125 C 4.457031 -38.503906 4.953125 -38.65625 5.640625 -38.65625 L 22.765625 -38.65625 C 26.273438 -38.65625 28.867188 -37.984375 30.546875 -36.640625 C 32.234375 -35.296875 33.078125 -33.226562 33.078125 -30.4375 L 33.078125 -27.859375 C 33.078125 -26.359375 32.816406 -25.132812 32.296875 -24.1875 C 31.773438 -23.238281 30.976562 -22.53125 29.90625 -22.0625 C 32.195312 -21.851562 33.894531 -21.066406 35 -19.703125 C 36.113281 -18.335938 36.671875 -16.351562 36.671875 -13.75 L 36.671875 -8.8125 C 36.671875 -5.800781 35.816406 -3.578125 34.109375 -2.140625 C 32.410156 -0.710938 29.789062 0 26.25 0 Z M 15.78125 -29.53125 L 15.78125 -23.734375 L 20.34375 -23.734375 C 21.03125 -23.734375 21.539062 -23.910156 21.875 -24.265625 C 22.21875 -24.617188 22.390625 -25.15625 22.390625 -25.875 L 22.390625 -27.375 C 22.390625 -28.09375 22.21875 -28.628906 21.875 -28.984375 C 21.539062 -29.347656 21.03125 -29.53125 20.34375 -29.53125 Z M 15.78125 -15.46875 L 15.78125 -9.125 L 22.765625 -9.125 C 23.441406 -9.125 23.945312 -9.300781 24.28125 -9.65625 C 24.625 -10.019531 24.796875 -10.5625 24.796875 -11.28125 L 24.796875 -13.375 C 24.796875 -14.082031 24.625 -14.609375 24.28125 -14.953125 C 23.945312 -15.296875 23.441406 -15.46875 22.765625 -15.46875 Z M 15.78125 -15.46875 "/></g></g></g><g fill="#7843e6" fill-opacity="1"><g transform="translate(70.464845, 285.729444)"><g><path d="M 23.734375 0 L 5.640625 0 C 4.953125 0 4.457031 -0.148438 4.15625 -0.453125 C 3.851562 -0.753906 3.703125 -1.25 3.703125 -1.9375 L 3.703125 -36.71875 C 3.703125 -37.40625 3.851562 -37.898438 4.15625 -38.203125 C 4.457031 -38.503906 4.953125 -38.65625 5.640625 -38.65625 L 23.734375 -38.65625 C 28.203125 -38.65625 31.519531 -37.757812 33.6875 -35.96875 C 35.851562 -34.175781 36.9375 -31.421875 36.9375 -27.703125 L 36.9375 -10.953125 C 36.9375 -7.234375 35.851562 -4.476562 33.6875 -2.6875 C 31.519531 -0.894531 28.203125 0 23.734375 0 Z M 15.890625 -28.40625 L 15.890625 -10.140625 L 22.28125 -10.140625 C 23.132812 -10.140625 23.765625 -10.351562 24.171875 -10.78125 C 24.585938 -11.21875 24.796875 -11.882812 24.796875 -12.78125 L 24.796875 -25.828125 C 24.796875 -26.722656 24.585938 -27.375 24.171875 -27.78125 C 23.765625 -28.195312 23.132812 -28.40625 22.28125 -28.40625 Z M 15.890625 -28.40625 "/></g></g></g><g fill="#7843e6" fill-opacity="1"><g transform="translate(110.512744, 285.729444)"><g><path d="M 30.546875 0 L 5.640625 0 C 4.953125 0 4.457031 -0.148438 4.15625 -0.453125 C 3.851562 -0.753906 3.703125 -1.25 3.703125 -1.9375 L 3.703125 -36.71875 C 3.703125 -37.40625 3.851562 -37.898438 4.15625 -38.203125 C 4.457031 -38.503906 4.953125 -38.65625 5.640625 -38.65625 L 30.546875 -38.65625 C 31.222656 -38.65625 31.710938 -38.503906 32.015625 -38.203125 C 32.328125 -37.898438 32.484375 -37.40625 32.484375 -36.71875 L 32.484375 -30.4375 C 32.484375 -29.757812 32.328125 -29.269531 32.015625 -28.96875 C 31.710938 -28.664062 31.222656 -28.515625 30.546875 -28.515625 L 15.734375 -28.515625 L 15.734375 -24.375 L 26.203125 -24.375 C 26.878906 -24.375 27.367188 -24.222656 27.671875 -23.921875 C 27.972656 -23.617188 28.125 -23.125 28.125 -22.4375 L 28.125 -16.703125 C 28.125 -16.015625 27.972656 -15.519531 27.671875 -15.21875 C 27.367188 -14.914062 26.878906 -14.765625 26.203125 -14.765625 L 15.734375 -14.765625 L 15.734375 -10.140625 L 30.546875 -10.140625 C 31.222656 -10.140625 31.710938 -9.988281 32.015625 -9.6875 C 32.328125 -9.382812 32.484375 -8.894531 32.484375 -8.21875 L 32.484375 -1.9375 C 32.484375 -1.25 32.328125 -0.753906 32.015625 -0.453125 C 31.710938 -0.148438 31.222656 0 30.546875 0 Z M 30.546875 0 "/></g></g></g><g fill="#7843e6" fill-opacity="1"><g transform="translate(145.621761, 285.729444)"><g><path d="M 26.578125 0 L 12.609375 0 C 11.929688 0 11.367188 -0.125 10.921875 -0.375 C 10.472656 -0.625 10.125 -1.085938 9.875 -1.765625 L 4.609375 -14.921875 C 4.296875 -15.710938 4.03125 -16.398438 3.8125 -16.984375 C 3.59375 -17.578125 3.410156 -18.140625 3.265625 -18.671875 C 3.128906 -19.210938 3.035156 -19.78125 2.984375 -20.375 C 2.929688 -20.96875 2.90625 -21.691406 2.90625 -22.546875 L 2.90625 -36.71875 C 2.90625 -37.40625 3.054688 -37.898438 3.359375 -38.203125 C 3.660156 -38.503906 4.148438 -38.65625 4.828125 -38.65625 L 13.375 -38.65625 C 14.050781 -38.65625 14.566406 -38.503906 14.921875 -38.203125 C 15.285156 -37.898438 15.46875 -37.40625 15.46875 -36.71875 L 15.46875 -21.90625 C 15.46875 -21.550781 15.5 -21.191406 15.5625 -20.828125 C 15.632812 -20.472656 15.742188 -20.097656 15.890625 -19.703125 L 18.421875 -12.1875 C 18.523438 -11.832031 18.644531 -11.59375 18.78125 -11.46875 C 18.925781 -11.34375 19.144531 -11.28125 19.4375 -11.28125 L 20.03125 -11.28125 C 20.3125 -11.28125 20.523438 -11.34375 20.671875 -11.46875 C 20.816406 -11.59375 20.941406 -11.832031 21.046875 -12.1875 L 23.5625 -19.75 C 23.707031 -20.144531 23.816406 -20.519531 23.890625 -20.875 C 23.960938 -21.238281 24 -21.597656 24 -21.953125 L 24 -36.71875 C 24 -37.40625 24.148438 -37.898438 24.453125 -38.203125 C 24.753906 -38.503906 25.25 -38.65625 25.9375 -38.65625 L 34.359375 -38.65625 C 35.035156 -38.65625 35.523438 -38.503906 35.828125 -38.203125 C 36.140625 -37.898438 36.296875 -37.40625 36.296875 -36.71875 L 36.296875 -22.546875 C 36.296875 -21.691406 36.265625 -20.96875 36.203125 -20.375 C 36.148438 -19.78125 36.050781 -19.210938 35.90625 -18.671875 C 35.769531 -18.140625 35.59375 -17.578125 35.375 -16.984375 C 35.164062 -16.398438 34.898438 -15.710938 34.578125 -14.921875 L 29.3125 -1.765625 C 29.0625 -1.085938 28.710938 -0.625 28.265625 -0.375 C 27.816406 -0.125 27.253906 0 26.578125 0 Z M 26.578125 0 "/></g></g></g><g fill="#7843e6" fill-opacity="1"><g transform="translate(184.810724, 285.729444)"><g><path d="M 13.953125 0 L 5.640625 0 C 4.953125 0 4.457031 -0.148438 4.15625 -0.453125 C 3.851562 -0.753906 3.703125 -1.25 3.703125 -1.9375 L 3.703125 -36.71875 C 3.703125 -37.40625 3.851562 -37.898438 4.15625 -38.203125 C 4.457031 -38.503906 4.953125 -38.65625 5.640625 -38.65625 L 13.953125 -38.65625 C 14.640625 -38.65625 15.132812 -38.503906 15.4375 -38.203125 C 15.738281 -37.898438 15.890625 -37.40625 15.890625 -36.71875 L 15.890625 -25.078125 L 24.859375 -25.078125 L 24.859375 -36.71875 C 24.859375 -37.40625 25.007812 -37.898438 25.3125 -38.203125 C 25.613281 -38.503906 26.109375 -38.65625 26.796875 -38.65625 L 35.109375 -38.65625 C 35.785156 -38.65625 36.273438 -38.503906 36.578125 -38.203125 C 36.890625 -37.898438 37.046875 -37.40625 37.046875 -36.71875 L 37.046875 -1.9375 C 37.046875 -1.25 36.890625 -0.753906 36.578125 -0.453125 C 36.273438 -0.148438 35.785156 0 35.109375 0 L 26.796875 0 C 26.109375 0 25.613281 -0.148438 25.3125 -0.453125 C 25.007812 -0.753906 24.859375 -1.25 24.859375 -1.9375 L 24.859375 -13.84375 L 15.890625 -13.84375 L 15.890625 -1.9375 C 15.890625 -1.25 15.738281 -0.753906 15.4375 -0.453125 C 15.132812 -0.148438 14.640625 0 13.953125 0 Z M 13.953125 0 "/></g></g></g><g fill="#7843e6" fill-opacity="1"><g transform="translate(225.556517, 285.729444)"><g><path d="M 36.609375 -10.140625 C 36.609375 -8.492188 36.367188 -7 35.890625 -5.65625 C 35.410156 -4.320312 34.550781 -3.179688 33.3125 -2.234375 C 32.070312 -1.285156 30.378906 -0.539062 28.234375 0 C 26.085938 0.539062 23.351562 0.8125 20.03125 0.8125 C 16.695312 0.8125 13.957031 0.539062 11.8125 0 C 9.664062 -0.539062 7.972656 -1.285156 6.734375 -2.234375 C 5.503906 -3.179688 4.644531 -4.320312 4.15625 -5.65625 C 3.675781 -7 3.4375 -8.492188 3.4375 -10.140625 L 3.4375 -36.71875 C 3.4375 -37.40625 3.585938 -37.898438 3.890625 -38.203125 C 4.191406 -38.503906 4.6875 -38.65625 5.375 -38.65625 L 13.796875 -38.65625 C 14.472656 -38.65625 14.960938 -38.503906 15.265625 -38.203125 C 15.578125 -37.898438 15.734375 -37.40625 15.734375 -36.71875 L 15.734375 -12.234375 C 15.734375 -11.523438 16 -10.925781 16.53125 -10.4375 C 17.070312 -9.957031 18.273438 -9.71875 20.140625 -9.71875 C 22.035156 -9.71875 23.25 -9.957031 23.78125 -10.4375 C 24.320312 -10.925781 24.59375 -11.523438 24.59375 -12.234375 L 24.59375 -36.71875 C 24.59375 -37.40625 24.742188 -37.898438 25.046875 -38.203125 C 25.347656 -38.503906 25.835938 -38.65625 26.515625 -38.65625 L 34.6875 -38.65625 C 35.363281 -38.65625 35.851562 -38.503906 36.15625 -38.203125 C 36.457031 -37.898438 36.609375 -37.40625 36.609375 -36.71875 Z M 36.609375 -10.140625 "/></g></g></g><g fill="#7843e6" fill-opacity="1"><g transform="translate(265.604404, 285.729444)"><g><path d="M 26.25 0 L 5.640625 0 C 4.953125 0 4.457031 -0.148438 4.15625 -0.453125 C 3.851562 -0.753906 3.703125 -1.25 3.703125 -1.9375 L 3.703125 -36.71875 C 3.703125 -37.40625 3.851562 -37.898438 4.15625 -38.203125 C 4.457031 -38.503906 4.953125 -38.65625 5.640625 -38.65625 L 22.765625 -38.65625 C 26.273438 -38.65625 28.867188 -37.984375 30.546875 -36.640625 C 32.234375 -35.296875 33.078125 -33.226562 33.078125 -30.4375 L 33.078125 -27.859375 C 33.078125 -26.359375 32.816406 -25.132812 32.296875 -24.1875 C 31.773438 -23.238281 30.976562 -22.53125 29.90625 -22.0625 C 32.195312 -21.851562 33.894531 -21.066406 35 -19.703125 C 36.113281 -18.335938 36.671875 -16.351562 36.671875 -13.75 L 36.671875 -8.8125 C 36.671875 -5.800781 35.816406 -3.578125 34.109375 -2.140625 C 32.410156 -0.710938 29.789062 0 26.25 0 Z M 15.78125 -29.53125 L 15.78125 -23.734375 L 20.34375 -23.734375 C 21.03125 -23.734375 21.539062 -23.910156 21.875 -24.265625 C 22.21875 -24.617188 22.390625 -25.15625 22.390625 -25.875 L 22.390625 -27.375 C 22.390625 -28.09375 22.21875 -28.628906 21.875 -28.984375 C 21.539062 -29.347656 21.03125 -29.53125 20.34375 -29.53125 Z M 15.78125 -15.46875 L 15.78125 -9.125 L 22.765625 -9.125 C 23.441406 -9.125 23.945312 -9.300781 24.28125 -9.65625 C 24.625 -10.019531 24.796875 -10.5625 24.796875 -11.28125 L 24.796875 -13.375 C 24.796875 -14.082031 24.625 -14.609375 24.28125 -14.953125 C 23.945312 -15.296875 23.441406 -15.46875 22.765625 -15.46875 Z M 15.78125 -15.46875 "/></g></g></g></svg>